<mxfile host="app.diagrams.net" modified="2024-05-01T16:57:37.958Z" agent="Mozilla/5.0 (Windows NT 10.0; Win64; x64) AppleWebKit/537.36 (KHTML, like Gecko) Chrome/124.0.0.0 Safari/537.36" etag="XYsloUKpcS7To-S6p4Ej" version="24.0.7" type="github">
  <diagram name="Page-1" id="g6tPxQ_hQQ2HpburPL4C">
    <mxGraphModel dx="1257" dy="1789" grid="1" gridSize="10" guides="1" tooltips="1" connect="1" arrows="1" fold="1" page="1" pageScale="1" pageWidth="827" pageHeight="1169" math="0" shadow="0">
      <root>
        <mxCell id="0" />
        <mxCell id="1" parent="0" />
        <mxCell id="LM3VT1PyNSQJY8h59Zqd-7" style="rounded=0;orthogonalLoop=1;jettySize=auto;html=1;entryX=0;entryY=0.5;entryDx=0;entryDy=0;edgeStyle=orthogonalEdgeStyle;" edge="1" parent="1" source="LM3VT1PyNSQJY8h59Zqd-2" target="LM3VT1PyNSQJY8h59Zqd-6">
          <mxGeometry relative="1" as="geometry">
            <Array as="points">
              <mxPoint x="540" y="230" />
              <mxPoint x="540" y="370" />
            </Array>
          </mxGeometry>
        </mxCell>
        <mxCell id="LM3VT1PyNSQJY8h59Zqd-10" style="edgeStyle=orthogonalEdgeStyle;rounded=0;orthogonalLoop=1;jettySize=auto;html=1;entryX=0;entryY=0.5;entryDx=0;entryDy=0;" edge="1" parent="1" source="LM3VT1PyNSQJY8h59Zqd-2" target="LM3VT1PyNSQJY8h59Zqd-8">
          <mxGeometry relative="1" as="geometry">
            <Array as="points">
              <mxPoint x="410" y="560" />
            </Array>
          </mxGeometry>
        </mxCell>
        <mxCell id="LM3VT1PyNSQJY8h59Zqd-12" value="" style="edgeStyle=orthogonalEdgeStyle;rounded=0;orthogonalLoop=1;jettySize=auto;html=1;" edge="1" parent="1" source="LM3VT1PyNSQJY8h59Zqd-2" target="LM3VT1PyNSQJY8h59Zqd-11">
          <mxGeometry relative="1" as="geometry">
            <Array as="points">
              <mxPoint x="410" y="-370" />
            </Array>
          </mxGeometry>
        </mxCell>
        <mxCell id="LM3VT1PyNSQJY8h59Zqd-2" value="" style="whiteSpace=wrap;html=1;aspect=fixed;" vertex="1" parent="1">
          <mxGeometry x="370" y="190" width="80" height="80" as="geometry" />
        </mxCell>
        <mxCell id="LM3VT1PyNSQJY8h59Zqd-5" style="rounded=0;orthogonalLoop=1;jettySize=auto;html=1;exitX=0;exitY=0.5;exitDx=0;exitDy=0;endArrow=none;endFill=0;entryX=1;entryY=0.5;entryDx=0;entryDy=0;edgeStyle=orthogonalEdgeStyle;" edge="1" parent="1" source="LM3VT1PyNSQJY8h59Zqd-3" target="LM3VT1PyNSQJY8h59Zqd-2">
          <mxGeometry relative="1" as="geometry">
            <Array as="points">
              <mxPoint x="630" y="-10" />
              <mxPoint x="540" y="-10" />
              <mxPoint x="540" y="230" />
            </Array>
          </mxGeometry>
        </mxCell>
        <mxCell id="LM3VT1PyNSQJY8h59Zqd-20" value="" style="edgeStyle=orthogonalEdgeStyle;rounded=0;orthogonalLoop=1;jettySize=auto;html=1;" edge="1" parent="1" source="LM3VT1PyNSQJY8h59Zqd-3" target="LM3VT1PyNSQJY8h59Zqd-19">
          <mxGeometry relative="1" as="geometry">
            <Array as="points">
              <mxPoint x="670" y="-130" />
            </Array>
          </mxGeometry>
        </mxCell>
        <mxCell id="LM3VT1PyNSQJY8h59Zqd-22" value="" style="edgeStyle=orthogonalEdgeStyle;rounded=0;orthogonalLoop=1;jettySize=auto;html=1;" edge="1" parent="1" source="LM3VT1PyNSQJY8h59Zqd-3" target="LM3VT1PyNSQJY8h59Zqd-21">
          <mxGeometry relative="1" as="geometry">
            <Array as="points">
              <mxPoint x="670" y="130" />
            </Array>
          </mxGeometry>
        </mxCell>
        <mxCell id="LM3VT1PyNSQJY8h59Zqd-25" value="" style="edgeStyle=orthogonalEdgeStyle;rounded=0;orthogonalLoop=1;jettySize=auto;html=1;" edge="1" parent="1" source="LM3VT1PyNSQJY8h59Zqd-3" target="LM3VT1PyNSQJY8h59Zqd-24">
          <mxGeometry relative="1" as="geometry" />
        </mxCell>
        <mxCell id="LM3VT1PyNSQJY8h59Zqd-3" value="Proyek 2" style="ellipse;whiteSpace=wrap;html=1;aspect=fixed;" vertex="1" parent="1">
          <mxGeometry x="630" y="-40" width="80" height="80" as="geometry" />
        </mxCell>
        <mxCell id="LM3VT1PyNSQJY8h59Zqd-6" value="Proyek 3" style="ellipse;whiteSpace=wrap;html=1;aspect=fixed;" vertex="1" parent="1">
          <mxGeometry x="620" y="330" width="80" height="80" as="geometry" />
        </mxCell>
        <mxCell id="LM3VT1PyNSQJY8h59Zqd-8" value="Proyek 4" style="ellipse;whiteSpace=wrap;html=1;" vertex="1" parent="1">
          <mxGeometry x="630" y="520" width="80" height="80" as="geometry" />
        </mxCell>
        <mxCell id="LM3VT1PyNSQJY8h59Zqd-16" value="" style="edgeStyle=orthogonalEdgeStyle;rounded=0;orthogonalLoop=1;jettySize=auto;html=1;" edge="1" parent="1" source="LM3VT1PyNSQJY8h59Zqd-11" target="LM3VT1PyNSQJY8h59Zqd-15">
          <mxGeometry relative="1" as="geometry">
            <Array as="points">
              <mxPoint x="670" y="-510" />
            </Array>
          </mxGeometry>
        </mxCell>
        <mxCell id="LM3VT1PyNSQJY8h59Zqd-18" value="" style="edgeStyle=orthogonalEdgeStyle;rounded=0;orthogonalLoop=1;jettySize=auto;html=1;" edge="1" parent="1" source="LM3VT1PyNSQJY8h59Zqd-11" target="LM3VT1PyNSQJY8h59Zqd-17">
          <mxGeometry relative="1" as="geometry">
            <Array as="points">
              <mxPoint x="670" y="-240" />
            </Array>
          </mxGeometry>
        </mxCell>
        <mxCell id="LM3VT1PyNSQJY8h59Zqd-11" value="Proyek 1" style="ellipse;whiteSpace=wrap;html=1;" vertex="1" parent="1">
          <mxGeometry x="630" y="-410" width="80" height="80" as="geometry" />
        </mxCell>
        <mxCell id="LM3VT1PyNSQJY8h59Zqd-15" value="P 0.5" style="rhombus;whiteSpace=wrap;html=1;" vertex="1" parent="1">
          <mxGeometry x="930" y="-550" width="80" height="80" as="geometry" />
        </mxCell>
        <mxCell id="LM3VT1PyNSQJY8h59Zqd-17" value="P 0.5" style="rhombus;whiteSpace=wrap;html=1;" vertex="1" parent="1">
          <mxGeometry x="930" y="-280" width="80" height="80" as="geometry" />
        </mxCell>
        <mxCell id="LM3VT1PyNSQJY8h59Zqd-19" value="P 0.3" style="rhombus;whiteSpace=wrap;html=1;" vertex="1" parent="1">
          <mxGeometry x="920" y="-170" width="80" height="80" as="geometry" />
        </mxCell>
        <mxCell id="LM3VT1PyNSQJY8h59Zqd-21" value="P 0.3" style="rhombus;whiteSpace=wrap;html=1;" vertex="1" parent="1">
          <mxGeometry x="910" y="100" width="80" height="80" as="geometry" />
        </mxCell>
        <mxCell id="LM3VT1PyNSQJY8h59Zqd-24" value="P 0.4" style="rhombus;whiteSpace=wrap;html=1;" vertex="1" parent="1">
          <mxGeometry x="920" y="-40" width="80" height="80" as="geometry" />
        </mxCell>
      </root>
    </mxGraphModel>
  </diagram>
</mxfile>
